<svg width="222" height="78" viewBox="0 0 222 78" fill="none" xmlns="http://www.w3.org/2000/svg">
<rect width="222" height="78" rx="2" fill="black"/>
<path d="M16.1667 27H34.8333C35.1428 27 35.4395 27.1229 35.6583 27.3417C35.8771 27.5605 36 27.8572 36 28.1667V36.3333H15V28.1667C15 27.8572 15.1229 27.5605 15.3417 27.3417C15.5605 27.1229 15.8572 27 16.1667 27ZM15 38.6667H36V46.8333C36 47.1428 35.8771 47.4395 35.6583 47.6583C35.4395 47.8771 35.1428 48 34.8333 48H16.1667C15.8572 48 15.5605 47.8771 15.3417 47.6583C15.1229 47.4395 15 47.1428 15 46.8333V38.6667ZM19.6667 42.1667V44.5H23.1667V42.1667H19.6667ZM19.6667 30.5V32.8333H23.1667V30.5H19.6667Z" fill="white"/>
<path d="M55.3965 28.6045L48.0488 51H42.1299L52.168 23.9844H55.9346L55.3965 28.6045ZM61.501 51L54.1348 28.6045L53.541 23.9844H57.3447L67.4385 51H61.501ZM61.167 40.9434V45.3037H46.8984V40.9434H61.167ZM74.9531 35.3027V51H69.6094V30.9238H74.6377L74.9531 35.3027ZM81.002 30.7939L80.9092 35.748C80.6494 35.7109 80.334 35.68 79.9629 35.6553C79.6042 35.6182 79.2764 35.5996 78.9795 35.5996C78.2249 35.5996 77.5693 35.6986 77.0127 35.8965C76.4684 36.082 76.0107 36.3604 75.6396 36.7314C75.2809 37.1025 75.0088 37.554 74.8232 38.0859C74.6501 38.6178 74.5511 39.224 74.5264 39.9043L73.4502 39.5703C73.4502 38.2715 73.5801 37.0778 73.8398 35.9893C74.0996 34.8883 74.4769 33.9297 74.9717 33.1133C75.4788 32.2969 76.0973 31.666 76.8271 31.2207C77.557 30.7754 78.3919 30.5527 79.332 30.5527C79.6289 30.5527 79.932 30.5775 80.2412 30.627C80.5505 30.6641 80.804 30.7197 81.002 30.7939ZM88.8691 35.0801V51H83.5068V30.9238H88.5352L88.8691 35.0801ZM88.127 40.2568H86.6426C86.6426 38.859 86.8096 37.5726 87.1436 36.3975C87.4899 35.21 87.9909 34.1833 88.6465 33.3174C89.3145 32.4391 90.137 31.7588 91.1143 31.2764C92.0915 30.7939 93.2233 30.5527 94.5098 30.5527C95.4004 30.5527 96.2168 30.6888 96.959 30.9609C97.7012 31.2207 98.3382 31.6351 98.8701 32.2041C99.4144 32.7607 99.835 33.4906 100.132 34.3936C100.429 35.2842 100.577 36.3542 100.577 37.6035V51H95.2334V38.1973C95.2334 37.2819 95.1097 36.5768 94.8623 36.082C94.6149 35.5872 94.2624 35.2409 93.8047 35.043C93.3594 34.8451 92.8213 34.7461 92.1904 34.7461C91.4977 34.7461 90.8916 34.8883 90.3721 35.1729C89.8649 35.4574 89.4443 35.8532 89.1104 36.3604C88.7764 36.8551 88.529 37.4365 88.3682 38.1045C88.2074 38.7725 88.127 39.4899 88.127 40.2568ZM100.076 39.6445L98.165 39.8857C98.165 38.5745 98.3258 37.3561 98.6475 36.2305C98.9814 35.1048 99.4701 34.1152 100.113 33.2617C100.769 32.4082 101.579 31.7464 102.544 31.2764C103.509 30.7939 104.622 30.5527 105.884 30.5527C106.849 30.5527 107.727 30.695 108.519 30.9795C109.31 31.2516 109.984 31.6908 110.541 32.2969C111.11 32.8906 111.543 33.6699 111.84 34.6348C112.149 35.5996 112.304 36.7809 112.304 38.1787V51H106.941V38.1787C106.941 37.251 106.818 36.5459 106.57 36.0635C106.335 35.5687 105.989 35.2285 105.531 35.043C105.086 34.8451 104.554 34.7461 103.936 34.7461C103.292 34.7461 102.729 34.876 102.247 35.1357C101.765 35.3831 101.363 35.7295 101.041 36.1748C100.719 36.6201 100.478 37.1396 100.317 37.7334C100.157 38.3148 100.076 38.9518 100.076 39.6445ZM127.277 46.4727V37.5293C127.277 36.8861 127.172 36.3356 126.962 35.8779C126.752 35.4079 126.424 35.043 125.979 34.7832C125.546 34.5234 124.983 34.3936 124.29 34.3936C123.696 34.3936 123.183 34.4987 122.75 34.709C122.317 34.9069 121.983 35.1976 121.748 35.5811C121.513 35.9521 121.396 36.3913 121.396 36.8984H116.052C116.052 36.0449 116.25 35.2347 116.646 34.4678C117.041 33.7008 117.617 33.0267 118.371 32.4453C119.126 31.8516 120.022 31.3877 121.062 31.0537C122.113 30.7197 123.288 30.5527 124.587 30.5527C126.146 30.5527 127.531 30.8125 128.743 31.332C129.955 31.8516 130.908 32.6309 131.601 33.6699C132.306 34.709 132.658 36.0078 132.658 37.5664V46.1572C132.658 47.2581 132.726 48.1611 132.862 48.8662C132.998 49.5589 133.196 50.165 133.456 50.6846V51H128.057C127.797 50.4557 127.599 49.7754 127.463 48.959C127.339 48.1302 127.277 47.3014 127.277 46.4727ZM127.982 38.7725L128.02 41.7969H125.032C124.327 41.7969 123.715 41.8773 123.195 42.0381C122.676 42.1989 122.249 42.4277 121.915 42.7246C121.581 43.0091 121.334 43.3431 121.173 43.7266C121.024 44.11 120.95 44.5306 120.95 44.9883C120.95 45.446 121.055 45.8604 121.266 46.2314C121.476 46.5902 121.779 46.8747 122.175 47.085C122.571 47.2829 123.035 47.3818 123.566 47.3818C124.37 47.3818 125.069 47.221 125.663 46.8994C126.257 46.5778 126.715 46.182 127.036 45.7119C127.37 45.2419 127.543 44.7965 127.556 44.376L128.966 46.6396C128.768 47.1468 128.496 47.6725 128.149 48.2168C127.815 48.7611 127.389 49.2744 126.869 49.7568C126.35 50.2269 125.725 50.6165 124.995 50.9258C124.265 51.2227 123.399 51.3711 122.397 51.3711C121.123 51.3711 119.967 51.1175 118.928 50.6104C117.901 50.0908 117.085 49.3796 116.479 48.4766C115.885 47.5612 115.588 46.5221 115.588 45.3594C115.588 44.3079 115.786 43.374 116.182 42.5576C116.577 41.7412 117.159 41.0547 117.926 40.498C118.705 39.929 119.676 39.5023 120.839 39.2178C122.002 38.9209 123.35 38.7725 124.884 38.7725H127.982ZM152.753 46.8252V51H137.501V46.8252H152.753ZM152.456 34.0039L139.653 51H136.072V47.8271L148.819 30.9238H152.456V34.0039ZM150.563 30.9238V35.1172H136.369V30.9238H150.563ZM165.055 51.3711C163.496 51.3711 162.098 51.1237 160.861 50.6289C159.624 50.1217 158.573 49.4229 157.707 48.5322C156.854 47.6416 156.198 46.6087 155.74 45.4336C155.283 44.2461 155.054 42.9844 155.054 41.6484V40.9062C155.054 39.3848 155.27 37.9932 155.703 36.7314C156.136 35.4697 156.755 34.375 157.559 33.4473C158.375 32.5195 159.365 31.8083 160.527 31.3135C161.69 30.8063 163.001 30.5527 164.461 30.5527C165.883 30.5527 167.145 30.7878 168.246 31.2578C169.347 31.7279 170.269 32.3958 171.011 33.2617C171.765 34.1276 172.334 35.1667 172.718 36.3789C173.101 37.5788 173.293 38.9147 173.293 40.3867V42.6133H157.336V39.0508H168.042V38.6426C168.042 37.9004 167.906 37.2386 167.634 36.6572C167.374 36.0635 166.978 35.5934 166.446 35.2471C165.914 34.9007 165.234 34.7275 164.405 34.7275C163.7 34.7275 163.094 34.8822 162.587 35.1914C162.08 35.5007 161.665 35.9336 161.344 36.4902C161.035 37.0469 160.799 37.7025 160.639 38.457C160.49 39.1992 160.416 40.0156 160.416 40.9062V41.6484C160.416 42.4525 160.527 43.1947 160.75 43.875C160.985 44.5553 161.313 45.1429 161.733 45.6377C162.166 46.1325 162.686 46.516 163.292 46.7881C163.91 47.0602 164.609 47.1963 165.389 47.1963C166.354 47.1963 167.25 47.0107 168.079 46.6396C168.92 46.2562 169.644 45.681 170.25 44.9141L172.848 47.7344C172.427 48.3405 171.852 48.9219 171.122 49.4785C170.405 50.0352 169.539 50.4928 168.524 50.8516C167.51 51.1979 166.354 51.3711 165.055 51.3711ZM181.68 35.0801V51H176.317V30.9238H181.346L181.68 35.0801ZM180.938 40.2568H179.453C179.453 38.859 179.62 37.5726 179.954 36.3975C180.3 35.21 180.801 34.1833 181.457 33.3174C182.125 32.4391 182.948 31.7588 183.925 31.2764C184.902 30.7939 186.034 30.5527 187.32 30.5527C188.211 30.5527 189.027 30.6888 189.77 30.9609C190.512 31.2207 191.149 31.6351 191.681 32.2041C192.225 32.7607 192.646 33.4906 192.942 34.3936C193.239 35.2842 193.388 36.3542 193.388 37.6035V51H188.044V38.1973C188.044 37.2819 187.92 36.5768 187.673 36.082C187.425 35.5872 187.073 35.2409 186.615 35.043C186.17 34.8451 185.632 34.7461 185.001 34.7461C184.308 34.7461 183.702 34.8883 183.183 35.1729C182.675 35.4574 182.255 35.8532 181.921 36.3604C181.587 36.8551 181.34 37.4365 181.179 38.1045C181.018 38.7725 180.938 39.4899 180.938 40.2568ZM192.887 39.6445L190.976 39.8857C190.976 38.5745 191.136 37.3561 191.458 36.2305C191.792 35.1048 192.281 34.1152 192.924 33.2617C193.579 32.4082 194.39 31.7464 195.354 31.2764C196.319 30.7939 197.433 30.5527 198.694 30.5527C199.659 30.5527 200.537 30.695 201.329 30.9795C202.121 31.2516 202.795 31.6908 203.352 32.2969C203.921 32.8906 204.354 33.6699 204.65 34.6348C204.96 35.5996 205.114 36.7809 205.114 38.1787V51H199.752V38.1787C199.752 37.251 199.628 36.5459 199.381 36.0635C199.146 35.5687 198.799 35.2285 198.342 35.043C197.896 34.8451 197.365 34.7461 196.746 34.7461C196.103 34.7461 195.54 34.876 195.058 35.1357C194.575 35.3831 194.173 35.7295 193.852 36.1748C193.53 36.6201 193.289 37.1396 193.128 37.7334C192.967 38.3148 192.887 38.9518 192.887 39.6445Z" fill="white"/>
</svg>
